<mxfile host="app.diagrams.net" modified="2023-10-15T02:33:39.791Z" agent="Mozilla/5.0 (Macintosh; Intel Mac OS X 10_15_7) AppleWebKit/537.36 (KHTML, like Gecko) Chrome/117.0.0.0 Safari/537.36" etag="fV4vLzNqoDp46251Lr0A" version="22.0.4" type="github">
  <diagram name="페이지-1" id="sch7zjA-Hu1M71cTcFCz">
    <mxGraphModel dx="2074" dy="1125" grid="1" gridSize="10" guides="1" tooltips="1" connect="1" arrows="1" fold="1" page="1" pageScale="1" pageWidth="827" pageHeight="1169" math="0" shadow="0">
      <root>
        <mxCell id="0" />
        <mxCell id="1" parent="0" />
        <mxCell id="el6HaZiETtPVSXskjFTp-13" value="VPC" style="outlineConnect=0;gradientColor=none;html=1;whiteSpace=wrap;fontSize=12;fontStyle=0;shape=mxgraph.aws4.group;grIcon=mxgraph.aws4.group_vpc;strokeColor=#879196;fillColor=none;verticalAlign=top;align=left;spacingLeft=30;fontColor=#879196;dashed=0;" vertex="1" parent="1">
          <mxGeometry x="400" y="100" width="860" height="850" as="geometry" />
        </mxCell>
        <mxCell id="el6HaZiETtPVSXskjFTp-12" value="Domain" style="outlineConnect=0;dashed=0;verticalLabelPosition=bottom;verticalAlign=top;align=center;html=1;shape=mxgraph.aws3.internet_gateway;fillColor=#F58534;gradientColor=none;" vertex="1" parent="1">
          <mxGeometry x="50" y="420" width="69" height="72" as="geometry" />
        </mxCell>
        <mxCell id="el6HaZiETtPVSXskjFTp-14" value="HAPROXY L4 LB" style="sketch=0;points=[[0,0,0],[0.25,0,0],[0.5,0,0],[0.75,0,0],[1,0,0],[0,1,0],[0.25,1,0],[0.5,1,0],[0.75,1,0],[1,1,0],[0,0.25,0],[0,0.5,0],[0,0.75,0],[1,0.25,0],[1,0.5,0],[1,0.75,0]];outlineConnect=0;fontColor=#232F3E;fillColor=#8C4FFF;strokeColor=#ffffff;dashed=0;verticalLabelPosition=bottom;verticalAlign=top;align=center;html=1;fontSize=12;fontStyle=0;aspect=fixed;shape=mxgraph.aws4.resourceIcon;resIcon=mxgraph.aws4.elastic_load_balancing;" vertex="1" parent="1">
          <mxGeometry x="240" y="520" width="78" height="78" as="geometry" />
        </mxCell>
        <mxCell id="el6HaZiETtPVSXskjFTp-15" value="Standby" style="edgeStyle=orthogonalEdgeStyle;orthogonalLoop=1;jettySize=auto;html=1;entryX=0;entryY=0.5;entryDx=0;entryDy=0;entryPerimeter=0;curved=1;sketch=1;curveFitting=1;jiggle=2;dashed=1;" edge="1" parent="1" source="el6HaZiETtPVSXskjFTp-12" target="el6HaZiETtPVSXskjFTp-14">
          <mxGeometry relative="1" as="geometry" />
        </mxCell>
        <mxCell id="el6HaZiETtPVSXskjFTp-16" value="HAPROXY L4 LB" style="sketch=0;points=[[0,0,0],[0.25,0,0],[0.5,0,0],[0.75,0,0],[1,0,0],[0,1,0],[0.25,1,0],[0.5,1,0],[0.75,1,0],[1,1,0],[0,0.25,0],[0,0.5,0],[0,0.75,0],[1,0.25,0],[1,0.5,0],[1,0.75,0]];outlineConnect=0;fontColor=#232F3E;fillColor=#8C4FFF;strokeColor=#ffffff;dashed=0;verticalLabelPosition=bottom;verticalAlign=top;align=center;html=1;fontSize=12;fontStyle=0;aspect=fixed;shape=mxgraph.aws4.resourceIcon;resIcon=mxgraph.aws4.elastic_load_balancing;" vertex="1" parent="1">
          <mxGeometry x="240" y="320" width="78" height="78" as="geometry" />
        </mxCell>
        <mxCell id="el6HaZiETtPVSXskjFTp-17" value="Active" style="edgeStyle=orthogonalEdgeStyle;orthogonalLoop=1;jettySize=auto;html=1;entryX=0;entryY=0.5;entryDx=0;entryDy=0;entryPerimeter=0;curved=1;sketch=1;curveFitting=1;jiggle=2;" edge="1" parent="1" source="el6HaZiETtPVSXskjFTp-12" target="el6HaZiETtPVSXskjFTp-16">
          <mxGeometry relative="1" as="geometry" />
        </mxCell>
        <mxCell id="el6HaZiETtPVSXskjFTp-38" style="edgeStyle=orthogonalEdgeStyle;orthogonalLoop=1;jettySize=auto;html=1;entryX=0.005;entryY=0.63;entryDx=0;entryDy=0;entryPerimeter=0;curved=1;sketch=1;curveFitting=1;jiggle=2;" edge="1" parent="1" source="el6HaZiETtPVSXskjFTp-16" target="el6HaZiETtPVSXskjFTp-34">
          <mxGeometry relative="1" as="geometry" />
        </mxCell>
        <mxCell id="el6HaZiETtPVSXskjFTp-39" style="edgeStyle=orthogonalEdgeStyle;orthogonalLoop=1;jettySize=auto;html=1;entryX=0.005;entryY=0.63;entryDx=0;entryDy=0;entryPerimeter=0;curved=1;sketch=1;curveFitting=1;jiggle=2;" edge="1" parent="1" source="el6HaZiETtPVSXskjFTp-16" target="el6HaZiETtPVSXskjFTp-35">
          <mxGeometry relative="1" as="geometry" />
        </mxCell>
        <mxCell id="el6HaZiETtPVSXskjFTp-40" style="edgeStyle=orthogonalEdgeStyle;orthogonalLoop=1;jettySize=auto;html=1;entryX=0.005;entryY=0.63;entryDx=0;entryDy=0;entryPerimeter=0;curved=1;sketch=1;curveFitting=1;jiggle=2;" edge="1" parent="1" source="el6HaZiETtPVSXskjFTp-16" target="el6HaZiETtPVSXskjFTp-36">
          <mxGeometry relative="1" as="geometry" />
        </mxCell>
        <mxCell id="el6HaZiETtPVSXskjFTp-41" style="edgeStyle=orthogonalEdgeStyle;orthogonalLoop=1;jettySize=auto;html=1;entryX=0.005;entryY=0.63;entryDx=0;entryDy=0;entryPerimeter=0;curved=1;sketch=1;curveFitting=1;jiggle=2;" edge="1" parent="1" source="el6HaZiETtPVSXskjFTp-16" target="el6HaZiETtPVSXskjFTp-37">
          <mxGeometry relative="1" as="geometry" />
        </mxCell>
        <mxCell id="el6HaZiETtPVSXskjFTp-42" style="edgeStyle=orthogonalEdgeStyle;orthogonalLoop=1;jettySize=auto;html=1;entryX=0.005;entryY=0.63;entryDx=0;entryDy=0;entryPerimeter=0;dashed=1;curved=1;sketch=1;curveFitting=1;jiggle=2;" edge="1" parent="1" source="el6HaZiETtPVSXskjFTp-14" target="el6HaZiETtPVSXskjFTp-34">
          <mxGeometry relative="1" as="geometry" />
        </mxCell>
        <mxCell id="el6HaZiETtPVSXskjFTp-43" style="edgeStyle=orthogonalEdgeStyle;orthogonalLoop=1;jettySize=auto;html=1;entryX=0.005;entryY=0.63;entryDx=0;entryDy=0;entryPerimeter=0;dashed=1;curved=1;sketch=1;curveFitting=1;jiggle=2;" edge="1" parent="1" source="el6HaZiETtPVSXskjFTp-14" target="el6HaZiETtPVSXskjFTp-35">
          <mxGeometry relative="1" as="geometry" />
        </mxCell>
        <mxCell id="el6HaZiETtPVSXskjFTp-44" style="edgeStyle=orthogonalEdgeStyle;orthogonalLoop=1;jettySize=auto;html=1;entryX=0.005;entryY=0.63;entryDx=0;entryDy=0;entryPerimeter=0;dashed=1;curved=1;sketch=1;curveFitting=1;jiggle=2;" edge="1" parent="1" source="el6HaZiETtPVSXskjFTp-14" target="el6HaZiETtPVSXskjFTp-36">
          <mxGeometry relative="1" as="geometry" />
        </mxCell>
        <mxCell id="el6HaZiETtPVSXskjFTp-45" style="edgeStyle=orthogonalEdgeStyle;orthogonalLoop=1;jettySize=auto;html=1;entryX=0.005;entryY=0.63;entryDx=0;entryDy=0;entryPerimeter=0;dashed=1;curved=1;sketch=1;curveFitting=1;jiggle=2;" edge="1" parent="1" source="el6HaZiETtPVSXskjFTp-14" target="el6HaZiETtPVSXskjFTp-37">
          <mxGeometry relative="1" as="geometry" />
        </mxCell>
        <mxCell id="el6HaZiETtPVSXskjFTp-48" value="" style="group" vertex="1" connectable="0" parent="1">
          <mxGeometry x="460" y="125" width="770" height="185" as="geometry" />
        </mxCell>
        <mxCell id="el6HaZiETtPVSXskjFTp-30" value="" style="rounded=0;whiteSpace=wrap;html=1;fillColor=none;" vertex="1" parent="el6HaZiETtPVSXskjFTp-48">
          <mxGeometry width="770" height="185" as="geometry" />
        </mxCell>
        <mxCell id="el6HaZiETtPVSXskjFTp-47" value="Master Node" style="text;html=1;align=center;verticalAlign=middle;resizable=0;points=[];autosize=1;strokeColor=none;fillColor=none;" vertex="1" parent="el6HaZiETtPVSXskjFTp-48">
          <mxGeometry width="90" height="30" as="geometry" />
        </mxCell>
        <mxCell id="el6HaZiETtPVSXskjFTp-67" value="" style="shape=image;verticalLabelPosition=bottom;labelBackgroundColor=default;verticalAlign=top;aspect=fixed;imageAspect=0;image=https://sue.eu/wp-content/uploads/sites/6/2022/07/cilium-logo-920x460-sue-v1.png;clipPath=inset(16.67% 16.33% 16.67% 17%);" vertex="1" parent="el6HaZiETtPVSXskjFTp-48">
          <mxGeometry x="110" y="58.75" width="135" height="67.5" as="geometry" />
        </mxCell>
        <mxCell id="el6HaZiETtPVSXskjFTp-50" value="" style="group" vertex="1" connectable="0" parent="1">
          <mxGeometry x="460" y="340" width="1062" height="580" as="geometry" />
        </mxCell>
        <mxCell id="el6HaZiETtPVSXskjFTp-28" value="" style="rounded=0;whiteSpace=wrap;html=1;fillColor=none;" vertex="1" parent="el6HaZiETtPVSXskjFTp-50">
          <mxGeometry width="770" height="580" as="geometry" />
        </mxCell>
        <mxCell id="el6HaZiETtPVSXskjFTp-49" value="Worker Node 1, 2, 3" style="text;html=1;align=center;verticalAlign=middle;resizable=0;points=[];autosize=1;strokeColor=none;fillColor=none;" vertex="1" parent="el6HaZiETtPVSXskjFTp-50">
          <mxGeometry width="130" height="30" as="geometry" />
        </mxCell>
        <mxCell id="el6HaZiETtPVSXskjFTp-51" value="Ingress Gateway" style="sketch=0;html=1;dashed=0;whitespace=wrap;fillColor=#2875E2;strokeColor=#ffffff;points=[[0.005,0.63,0],[0.1,0.2,0],[0.9,0.2,0],[0.5,0,0],[0.995,0.63,0],[0.72,0.99,0],[0.5,1,0],[0.28,0.99,0]];verticalLabelPosition=bottom;align=center;verticalAlign=top;shape=mxgraph.kubernetes.icon;prIcon=pod" vertex="1" parent="el6HaZiETtPVSXskjFTp-50">
          <mxGeometry x="100" y="262" width="50" height="48" as="geometry" />
        </mxCell>
        <mxCell id="el6HaZiETtPVSXskjFTp-56" value="Istio" style="sketch=0;html=1;verticalAlign=top;labelPosition=center;verticalLabelPosition=bottom;align=center;spacingTop=-6;fontSize=11;fontStyle=1;fontColor=#999999;shape=image;aspect=fixed;imageAspect=0;image=data:image/svg+xml,PHN2ZyB4bWxucz0iaHR0cDovL3d3dy53My5vcmcvMjAwMC9zdmciIHhtbG5zOnY9Imh0dHBzOi8vdmVjdGEuaW8vbmFubyIgd2lkdGg9IjE2MCIgaGVpZ2h0PSIyNDAiIHZpZXdCb3g9IjAgMCAxNjAgMjQwIj4mI3hhOwk8c3R5bGUgdHlwZT0idGV4dC9jc3MiPiYjeGE7CS5zdDB7ZmlsbDojNDY2YmIwO30mI3hhOwk8L3N0eWxlPiYjeGE7CTxwYXRoIGNsYXNzPSJzdDAiIGQ9Ik02MCAyNDBMMCAyMTBoMTYwem0wLTE2MEwwIDIwMGw2MC0xMHpNNzAgMHYxOTBsOTAgMTB6Ii8+JiN4YTs8L3N2Zz4=;" vertex="1" parent="el6HaZiETtPVSXskjFTp-50">
          <mxGeometry x="111.5" y="210" width="27" height="42" as="geometry" />
        </mxCell>
        <mxCell id="el6HaZiETtPVSXskjFTp-57" value="Auth Service" style="sketch=0;html=1;dashed=0;whitespace=wrap;fillColor=#2875E2;strokeColor=#ffffff;points=[[0.005,0.63,0],[0.1,0.2,0],[0.9,0.2,0],[0.5,0,0],[0.995,0.63,0],[0.72,0.99,0],[0.5,1,0],[0.28,0.99,0]];verticalLabelPosition=bottom;align=center;verticalAlign=top;shape=mxgraph.kubernetes.icon;prIcon=pod" vertex="1" parent="el6HaZiETtPVSXskjFTp-50">
          <mxGeometry x="317" y="110" width="50" height="48" as="geometry" />
        </mxCell>
        <mxCell id="el6HaZiETtPVSXskjFTp-58" value="Calender Service" style="sketch=0;html=1;dashed=0;whitespace=wrap;fillColor=#2875E2;strokeColor=#ffffff;points=[[0.005,0.63,0],[0.1,0.2,0],[0.9,0.2,0],[0.5,0,0],[0.995,0.63,0],[0.72,0.99,0],[0.5,1,0],[0.28,0.99,0]];verticalLabelPosition=bottom;align=center;verticalAlign=top;shape=mxgraph.kubernetes.icon;prIcon=pod" vertex="1" parent="el6HaZiETtPVSXskjFTp-50">
          <mxGeometry x="317" y="255" width="50" height="48" as="geometry" />
        </mxCell>
        <mxCell id="el6HaZiETtPVSXskjFTp-59" value="Community Service" style="sketch=0;html=1;dashed=0;whitespace=wrap;fillColor=#2875E2;strokeColor=#ffffff;points=[[0.005,0.63,0],[0.1,0.2,0],[0.9,0.2,0],[0.5,0,0],[0.995,0.63,0],[0.72,0.99,0],[0.5,1,0],[0.28,0.99,0]];verticalLabelPosition=bottom;align=center;verticalAlign=top;shape=mxgraph.kubernetes.icon;prIcon=pod" vertex="1" parent="el6HaZiETtPVSXskjFTp-50">
          <mxGeometry x="317" y="420" width="50" height="48" as="geometry" />
        </mxCell>
        <mxCell id="el6HaZiETtPVSXskjFTp-61" style="edgeStyle=orthogonalEdgeStyle;orthogonalLoop=1;jettySize=auto;html=1;entryX=0.005;entryY=0.63;entryDx=0;entryDy=0;entryPerimeter=0;sketch=1;curveFitting=1;jiggle=2;curved=1;" edge="1" parent="el6HaZiETtPVSXskjFTp-50" source="el6HaZiETtPVSXskjFTp-51" target="el6HaZiETtPVSXskjFTp-57">
          <mxGeometry relative="1" as="geometry" />
        </mxCell>
        <mxCell id="el6HaZiETtPVSXskjFTp-62" style="edgeStyle=orthogonalEdgeStyle;orthogonalLoop=1;jettySize=auto;html=1;entryX=0.005;entryY=0.63;entryDx=0;entryDy=0;entryPerimeter=0;sketch=1;curveFitting=1;jiggle=2;curved=1;" edge="1" parent="el6HaZiETtPVSXskjFTp-50" source="el6HaZiETtPVSXskjFTp-51" target="el6HaZiETtPVSXskjFTp-58">
          <mxGeometry relative="1" as="geometry" />
        </mxCell>
        <mxCell id="el6HaZiETtPVSXskjFTp-63" style="edgeStyle=orthogonalEdgeStyle;orthogonalLoop=1;jettySize=auto;html=1;entryX=0.005;entryY=0.63;entryDx=0;entryDy=0;entryPerimeter=0;sketch=1;curveFitting=1;jiggle=2;curved=1;" edge="1" parent="el6HaZiETtPVSXskjFTp-50" source="el6HaZiETtPVSXskjFTp-51" target="el6HaZiETtPVSXskjFTp-59">
          <mxGeometry relative="1" as="geometry" />
        </mxCell>
        <mxCell id="el6HaZiETtPVSXskjFTp-34" value="NodePort" style="sketch=0;html=1;dashed=0;whitespace=wrap;fillColor=#2875E2;strokeColor=#ffffff;points=[[0.005,0.63,0],[0.1,0.2,0],[0.9,0.2,0],[0.5,0,0],[0.995,0.63,0],[0.72,0.99,0],[0.5,1,0],[0.28,0.99,0]];verticalLabelPosition=bottom;align=center;verticalAlign=top;shape=mxgraph.kubernetes.icon;prIcon=svc" vertex="1" parent="1">
          <mxGeometry x="440" y="193.5" width="50" height="48" as="geometry" />
        </mxCell>
        <mxCell id="el6HaZiETtPVSXskjFTp-35" value="NodePort" style="sketch=0;html=1;dashed=0;whitespace=wrap;fillColor=#2875E2;strokeColor=#ffffff;points=[[0.005,0.63,0],[0.1,0.2,0],[0.9,0.2,0],[0.5,0,0],[0.995,0.63,0],[0.72,0.99,0],[0.5,1,0],[0.28,0.99,0]];verticalLabelPosition=bottom;align=center;verticalAlign=top;shape=mxgraph.kubernetes.icon;prIcon=svc" vertex="1" parent="1">
          <mxGeometry x="440" y="398.5" width="50" height="48" as="geometry" />
        </mxCell>
        <mxCell id="el6HaZiETtPVSXskjFTp-36" value="NodePort" style="sketch=0;html=1;dashed=0;whitespace=wrap;fillColor=#2875E2;strokeColor=#ffffff;points=[[0.005,0.63,0],[0.1,0.2,0],[0.9,0.2,0],[0.5,0,0],[0.995,0.63,0],[0.72,0.99,0],[0.5,1,0],[0.28,0.99,0]];verticalLabelPosition=bottom;align=center;verticalAlign=top;shape=mxgraph.kubernetes.icon;prIcon=svc" vertex="1" parent="1">
          <mxGeometry x="440" y="608.5" width="50" height="48" as="geometry" />
        </mxCell>
        <mxCell id="el6HaZiETtPVSXskjFTp-37" value="NodePort" style="sketch=0;html=1;dashed=0;whitespace=wrap;fillColor=#2875E2;strokeColor=#ffffff;points=[[0.005,0.63,0],[0.1,0.2,0],[0.9,0.2,0],[0.5,0,0],[0.995,0.63,0],[0.72,0.99,0],[0.5,1,0],[0.28,0.99,0]];verticalLabelPosition=bottom;align=center;verticalAlign=top;shape=mxgraph.kubernetes.icon;prIcon=svc" vertex="1" parent="1">
          <mxGeometry x="440" y="818.5" width="50" height="48" as="geometry" />
        </mxCell>
        <mxCell id="el6HaZiETtPVSXskjFTp-52" style="edgeStyle=orthogonalEdgeStyle;orthogonalLoop=1;jettySize=auto;html=1;entryX=0.005;entryY=0.63;entryDx=0;entryDy=0;entryPerimeter=0;curved=1;sketch=1;curveFitting=1;jiggle=2;" edge="1" parent="1" source="el6HaZiETtPVSXskjFTp-36" target="el6HaZiETtPVSXskjFTp-51">
          <mxGeometry relative="1" as="geometry" />
        </mxCell>
        <mxCell id="el6HaZiETtPVSXskjFTp-53" style="edgeStyle=orthogonalEdgeStyle;orthogonalLoop=1;jettySize=auto;html=1;entryX=0.005;entryY=0.63;entryDx=0;entryDy=0;entryPerimeter=0;curved=1;sketch=1;curveFitting=1;jiggle=2;" edge="1" parent="1" source="el6HaZiETtPVSXskjFTp-35" target="el6HaZiETtPVSXskjFTp-51">
          <mxGeometry relative="1" as="geometry" />
        </mxCell>
        <mxCell id="el6HaZiETtPVSXskjFTp-54" style="edgeStyle=orthogonalEdgeStyle;orthogonalLoop=1;jettySize=auto;html=1;entryX=0.005;entryY=0.63;entryDx=0;entryDy=0;entryPerimeter=0;curved=1;sketch=1;curveFitting=1;jiggle=2;" edge="1" parent="1" source="el6HaZiETtPVSXskjFTp-37" target="el6HaZiETtPVSXskjFTp-51">
          <mxGeometry relative="1" as="geometry" />
        </mxCell>
        <mxCell id="el6HaZiETtPVSXskjFTp-55" style="edgeStyle=orthogonalEdgeStyle;orthogonalLoop=1;jettySize=auto;html=1;entryX=0.005;entryY=0.63;entryDx=0;entryDy=0;entryPerimeter=0;curved=1;sketch=1;curveFitting=1;jiggle=2;" edge="1" parent="1" source="el6HaZiETtPVSXskjFTp-34" target="el6HaZiETtPVSXskjFTp-51">
          <mxGeometry relative="1" as="geometry" />
        </mxCell>
      </root>
    </mxGraphModel>
  </diagram>
</mxfile>
